<svg xmlns="http://www.w3.org/2000/svg" width="105.142" height="25.487">
    <g fill="black">
        <path
            d="M38.042 10.179a5.424 5.424 0 01-1.182 2.556 4.919 4.919 0 01-2.431 1.549l3.294 6.144h-4.808l-2.5-5.741-1.3.005-1.08 5.735h-4.234L26.642 5.32h7.044a4.3 4.3 0 013.573 1.448 4.018 4.018 0 01.783 3.411zm-8.43 1.88h1.521q2.391 0 2.763-1.985.4-2.136-1.966-2.136h-1.539z" />
        <path
            d="M41.41 15.266q-.027.227-.027.3a2.546 2.546 0 00.784 1.977 3.249 3.249 0 002.271.718 6.308 6.308 0 003.692-1.108l-.425 2.392a8.467 8.467 0 01-4.675 1.183 5.369 5.369 0 01-4.117-1.586 5.1 5.1 0 01-1.328-4A5.9 5.9 0 0139.71 10.9a6.653 6.653 0 014.436-1.649 5.281 5.281 0 013.506 1.133 3.312 3.312 0 011.2 3 6.349 6.349 0 01-.4 1.888zm4.223-2.442a1.27 1.27 0 00-.332-1.02 1.464 1.464 0 00-1.129-.416q-1.674 0-2.417 2.191h3.666a1.967 1.967 0 00.212-.756z" />
        <path
            d="M48.858 20.427l1.594-8.586h-1.833l.425-2.291h1.833l.032-.175q.664-4.458 5.761-4.458a12.5 12.5 0 012.735.4l3.956-.352-2.862 15.46h-3.964l2.385-12.89a5.336 5.336 0 00-1.907-.352 2 2 0 00-1.43.454 2.656 2.656 0 00-.662 1.486l-.079.427h2.311l-.452 2.291h-2.285l-1.594 8.586zM66.028 15.266q-.027.227-.027.3a2.546 2.546 0 00.784 1.977 3.249 3.249 0 002.271.718 6.308 6.308 0 003.692-1.108l-.425 2.392a8.467 8.467 0 01-4.675 1.183 5.369 5.369 0 01-4.117-1.586 5.1 5.1 0 01-1.328-4 5.9 5.9 0 012.125-4.242 6.653 6.653 0 014.436-1.649 5.281 5.281 0 013.506 1.133 3.311 3.311 0 011.2 3 6.346 6.346 0 01-.4 1.888zm4.224-2.442a1.27 1.27 0 00-.332-1.02 1.465 1.465 0 00-1.129-.416q-1.674 0-2.417 2.191h3.666a1.965 1.965 0 00.212-.756z" />
        <path
            d="M86.37 9.55l-4.967 5.338 3.214 5.539h-4.091l-2-3.5-3.158 3.5h-4.006l5.229-5.615-3-5.262h4.091l1.78 3.25 2.95-3.247z" />
        <path
            d="M88.131 15.266q-.027.227-.027.3a2.545 2.545 0 00.784 1.977 3.248 3.248 0 002.271.718 6.308 6.308 0 003.692-1.108l-.425 2.392a8.467 8.467 0 01-4.675 1.183 5.369 5.369 0 01-4.117-1.586 5.1 5.1 0 01-1.328-4 5.9 5.9 0 012.125-4.242 6.653 6.653 0 014.436-1.649 5.281 5.281 0 013.506 1.133 3.312 3.312 0 011.2 3 6.346 6.346 0 01-.4 1.888zm4.224-2.442a1.27 1.27 0 00-.332-1.02 1.464 1.464 0 00-1.129-.416q-1.674 0-2.417 2.191h3.666a1.967 1.967 0 00.212-.756zM105.142 9.248l-.77 4.1a3 3 0 00-1.2-.252q-2.663 0-3.267 3.192l-.764 4.135h-3.934l1.394-7.551a22.286 22.286 0 00.39-3.322h3.745a10.754 10.754 0 01-.082 1.989 5.217 5.217 0 011.836-1.7 4.758 4.758 0 012.652-.591zM13.005 0h-2.42L8.458 10.325l.042.02a2.758 2.758 0 01.819.665q.085.1.159.21a2.721 2.721 0 01.377 2.29c0 .011-.005.023-.008.033a2.717 2.717 0 01-.171.434l-.023.049a2.737 2.737 0 01-.237.378l-.038.052a2.766 2.766 0 01-.295.32l-.051.047a2.776 2.776 0 01-.345.261l-.059.036a2.751 2.751 0 01-.391.2l-.06.023a2.729 2.729 0 01-.432.125l-.054.009a2.967 2.967 0 01-.3.028l-1.564 7.587h4.144l4.411-21.407A1.4 1.4 0 0013.005 0zM5.682 15.058a2.756 2.756 0 01-.411-.334q-.094-.092-.18-.194a2.766 2.766 0 01-.3-.435q-.064-.116-.117-.238a2.726 2.726 0 01-.222-1.057 2.691 2.691 0 01.1-.774c0-.011.005-.022.008-.033a2.716 2.716 0 01.171-.434l.023-.048a2.74 2.74 0 01.237-.377l.038-.052a2.758 2.758 0 01.295-.321l.051-.047a2.755 2.755 0 01.345-.261l.059-.036a2.751 2.751 0 01.391-.2l.061-.023a2.725 2.725 0 01.432-.125l.054-.009a2.96 2.96 0 01.312-.03L8.606 2.4H4.463L.051 23.8a1.4 1.4 0 001.376 1.685h2.42l2.118-10.268c-.017-.009-.037-.013-.054-.022q-.12-.063-.229-.137z" />
        <path
            d="M4.756 13.824a2.633 2.633 0 01-.2-.753 2.633 2.633 0 00.2.753zM4.554 13.07a2.634 2.634 0 01-.017-.266 2.622 2.622 0 00.017.266zM4.638 12.052c0-.01 0-.021.008-.031l-.008.031zM4.812 11.6l.023-.047c-.009.016-.016.032-.023.047zM5.064 11.188l.038-.05zM9.347 14.352l-.038.05zM7.728 15.379l-.053.008zM9.025 14.712l-.05.045zM5.386 10.827l.05-.045zM8.205 15.235l-.059.021zM5.159 14.475a2.675 2.675 0 01-.29-.421 2.675 2.675 0 00.29.421zM5.729 14.987a2.673 2.673 0 01-.4-.323 2.673 2.673 0 00.4.323zM7.209 15.43h.01c-.084 0-.168 0-.253-.009q.125.009.243.009zM6.436 15.318a2.653 2.653 0 01-.485-.2 2.653 2.653 0 00.485.2zM7.714 10.157a2.673 2.673 0 01.509.151 2.673 2.673 0 00-.509-.151zM8.641 15.01l-.057.035zM9.772 13.486c0 .01 0 .021-.008.031.004-.01.005-.017.008-.031zM9.407 11.268a2.663 2.663 0 01.249.448 2.656 2.656 0 00-.249-.448zM7.202 10.108h-.011c.084 0 .168 0 .253.009q-.122-.009-.242-.009zM9.252 11.063a2.668 2.668 0 00-.793-.643 2.668 2.668 0 01.793.643zM6.205 10.3l.059-.021zM6.683 10.16l.053-.008zM9.6 13.939l-.023.047c.008-.016.014-.032.023-.047zM5.77 10.529l.057-.035z" />
        <path
            d="M12.736 8.162A7.163 7.163 0 007.85 5.609a7.392 7.392 0 00-.648-.029 7.189 7.189 0 00-.642 14.35c.215.019.433.029.648.029a7.186 7.186 0 005.527-11.8zm-2.874 4.846a2.668 2.668 0 01-.089.478c0 .011 0 .022-.008.032a2.631 2.631 0 01-.165.42l-.022.047a2.656 2.656 0 01-.23.366l-.037.05a2.66 2.66 0 01-.286.311l-.049.045a2.683 2.683 0 01-.335.253l-.057.035a2.661 2.661 0 01-.378.19l-.059.022a2.661 2.661 0 01-.419.121l-.052.008a2.652 2.652 0 01-.457.043h-.01q-.12 0-.242-.011a2.683 2.683 0 01-.531-.1 2.651 2.651 0 01-.485-.2q-.115-.061-.222-.132a2.669 2.669 0 01-.4-.323q-.091-.09-.173-.188a2.675 2.675 0 01-.289-.421q-.062-.112-.113-.231a2.641 2.641 0 01-.218-1.02 2.607 2.607 0 01.1-.75c0-.011 0-.022.008-.032a2.629 2.629 0 01.167-.421l.022-.047a2.644 2.644 0 01.23-.366l.037-.05a2.662 2.662 0 01.286-.311l.049-.045a2.673 2.673 0 01.335-.253l.057-.035a2.671 2.671 0 01.378-.19l.059-.022a2.646 2.646 0 01.419-.121l.052-.009a2.662 2.662 0 01.457-.043h.01q.12 0 .242.011a2.706 2.706 0 01.27.038 2.663 2.663 0 01.509.152q.121.05.236.111a2.669 2.669 0 01.793.644q.082.1.155.2a2.648 2.648 0 01.455 1.74z" />
        <path
            d="M9.577 13.986a2.651 2.651 0 01-.23.365 2.641 2.641 0 00.23-.365zM8.976 14.757a2.679 2.679 0 01-.335.252 2.678 2.678 0 00.335-.252zM9.311 14.4a2.675 2.675 0 01-.286.31 2.675 2.675 0 00.286-.31zM9.862 13.008a2.653 2.653 0 01-.09.477 2.653 2.653 0 00.09-.477zM9.765 13.519a2.62 2.62 0 01-.166.42 2.62 2.62 0 00.166-.42zM6.264 10.281a2.674 2.674 0 01.419-.12 2.663 2.663 0 00-.419.12zM5.827 10.493a2.676 2.676 0 01.378-.189 2.676 2.676 0 00-.378.189zM5.1 11.138a2.673 2.673 0 01.286-.31 2.669 2.669 0 00-.286.31zM5.435 10.782a2.688 2.688 0 01.335-.252 2.688 2.688 0 00-.335.252zM6.735 10.152a2.712 2.712 0 01.457-.042 2.712 2.712 0 00-.457.042zM4.638 12.054a2.6 2.6 0 00-.1.75 2.6 2.6 0 01.1-.75zM8.583 15.045a2.676 2.676 0 01-.378.189 2.665 2.665 0 00.378-.189zM7.675 15.387a2.713 2.713 0 01-.457.042 2.712 2.712 0 00.457-.042zM8.146 15.257a2.667 2.667 0 01-.419.12 2.666 2.666 0 00.419-.12zM4.646 12.021a2.616 2.616 0 01.166-.42 2.616 2.616 0 00-.166.42zM4.834 11.554a2.648 2.648 0 01.231-.365 2.639 2.639 0 00-.231.365z" />
    </g>
</svg>