<svg width="300" height="35" viewBox="0 0 100 117" xmlns="http://www.w3.org/2000/svg"><g fill="none" fill-rule="evenodd"><path d="M80.874 87.868l-6.158-5.68c4.536-4.454 7.032-10.326 7.032-16.53a22.716 22.716 0 00-2.719-10.815 23.941 23.941 0 00-4.848-6.225l-3.213-2.97 3.445-3.095 2.935 2.961 2.807-2.751c6.555 6.063 10.168 14.194 10.168 22.894 0 8.338-3.355 16.227-9.449 22.211z" stroke="#0FCE7C" stroke-width=".5" fill="#0FCE7C"/><path d="M80.674 107.743h-29.71c-23.074 0-41.851-19.082-41.851-42.532 0-23.455 18.774-42.533 41.858-42.533 9.58 0 18.67 3.25 26.052 9.235l-20.394 19.15a14.75 14.75 0 00-5.658-1.13c-8.29 0-15.032 6.855-15.032 15.278 0 8.422 6.742 15.277 15.032 15.277a14.76 14.76 0 004.248-.628l25.458 19.473v8.41h-.003zM50.964 71.23c-3.264 0-5.922-2.703-5.922-6.02 0-3.321 2.658-6.021 5.926-6.021 3.264 0 5.922 2.7 5.922 6.02 0 3.318-2.658 6.021-5.922 6.021h-.003zM66 65.211c0-2.998-.858-5.794-2.332-8.157L75.829 45.63l.103.11 14.39-13.78-3.316-3.369c-9.625-9.785-22.425-15.17-36.038-15.17C22.865 13.421 0 36.654 0 65.21c0 28.273 22.42 51.316 50.139 51.766V117h39.645V94.714l-26.726-20.44A15.355 15.355 0 0066 65.21z" fill="currentColor" fill-rule="nonzero"/><path d="M51 71a6 6 0 100-12 6 6 0 000 12zm0 9c8.284 0 15-6.716 15-15 0-8.284-6.716-15-15-15-8.284 0-15 6.716-15 15 0 8.284 6.716 15 15 15z" class="prefix__center-circle" fill="currentColor"/><path fill="#25E899" fill-rule="nonzero" d="M100 10.184l-3.226 3.237-3.226-3.237 3.226-3.237zM74.194 10.184l-3.226 3.237-3.226-3.237 3.226-3.237z"/><path d="M35.484 45.79c-1.78 0-3.226-1.606-3.226-3.587V4.06c0-1.98 1.445-3.586 3.226-3.586 1.78 0 3.226 1.605 3.226 3.586v38.143c0 1.981-1.445 3.586-3.226 3.586" class="prefix__ant1" fill="currentColor" fill-rule="nonzero"/><path d="M54.484 37.474c-1.78 0-3.226-1.311-3.226-2.929V3.402c0-1.617 1.445-2.928 3.226-2.928 1.78 0 3.226 1.31 3.226 2.928v31.143c0 1.618-1.445 2.929-3.226 2.929" class="prefix__ant2" fill="currentColor" fill-rule="nonzero"/></g></svg>